<?xml version="1.0" encoding="utf-8"?>
<!-- Generator: Adobe Illustrator 26.0.2, SVG Export Plug-In . SVG Version: 6.00 Build 0)  -->
<svg version="1.1" id="Layer_1" xmlns="http://www.w3.org/2000/svg" xmlns:xlink="http://www.w3.org/1999/xlink" x="0px" y="0px"
	 viewBox="0 0 150 175" style="enable-background:new 0 0 150 175;" xml:space="preserve">
<style type="text/css">
	.st0{fill:#FCD701;}
	.st1{fill:#6FCCDD;}
	.st2{fill:#F8961D;stroke:#FFFFFF;stroke-width:2.8346;stroke-miterlimit:10;}
</style>
<g>
	<path class="st0" d="M111,126.9c0-1.7-3.4-3.1-3.6-4.6c-0.2-1.6,2.6-3.9,2.2-5.5c-0.5-1.6-4.1-2-4.8-3.4c-0.7-1.5,1.4-4.5,0.5-5.9
		c-0.9-1.4-4.5-0.7-5.6-1.9c-1.1-1.2,0.1-4.7-1.1-5.8c-1.2-1.1-4.5,0.6-5.9-0.3c-1.4-0.9-1.2-4.5-2.7-5.2c-1.5-0.7-4.2,1.8-5.7,1.4
		c-1.6-0.5-2.5-4-4.1-4.2c-1.6-0.2-3.5,2.9-5.1,2.9c-1.7,0-3.5-3.2-5.1-2.9c-1.6,0.2-2.5,3.8-4.1,4.2c-1.6,0.5-4.3-2-5.7-1.4
		c-1.5,0.7-1.4,4.3-2.7,5.2c-1.4,0.9-4.7-0.8-5.9,0.3c-1.2,1.1-0.1,4.5-1.1,5.8c-1.1,1.2-4.7,0.6-5.6,1.9c-0.9,1.4,1.2,4.4,0.5,5.9
		c-0.7,1.5-4.3,1.9-4.8,3.4c-0.5,1.6,2.4,3.8,2.2,5.5c-0.2,1.6-3.6,3-3.6,4.6c0,1.7,3.4,3.1,3.6,4.6c0.2,1.6-2.6,3.9-2.2,5.5
		c0.5,1.6,4.1,2,4.8,3.4c0.7,1.5-1.4,4.5-0.5,5.9c0.9,1.4,4.5,0.7,5.6,1.9c1.1,1.2-0.1,4.7,1.1,5.8c1.2,1.1,4.5-0.6,5.9,0.3
		c1.4,0.9,1.2,4.5,2.7,5.2c1.5,0.7,4.2-1.8,5.7-1.4c1.6,0.5,2.5,4,4.1,4.2c1.6,0.2,3.5-2.9,5.1-2.9c1.7,0,3.5,3.2,5.1,2.9
		c1.6-0.2,2.5-3.8,4.1-4.2c1.6-0.5,4.3,2,5.7,1.4c1.5-0.7,1.4-4.3,2.7-5.2c1.4-0.9,4.7,0.8,5.9-0.3c1.2-1.1,0.1-4.5,1.1-5.8
		c1.1-1.2,4.7-0.6,5.6-1.9c0.9-1.4-1.2-4.4-0.5-5.9c0.7-1.5,4.3-1.9,4.8-3.4c0.5-1.6-2.4-3.8-2.2-5.5C107.6,130,111,128.6,111,126.9
		z M75,153.9c-15.1,0-27.3-12.1-27.3-27c0-14.9,12.2-27,27.3-27c15.1,0,27.3,12.1,27.3,27C102.3,141.8,90.1,153.9,75,153.9z"/>
	<path class="st1" d="M75,102.9c-13.4,0-24.3,10.8-24.3,24s10.9,24,24.3,24s24.3-10.8,24.3-24S88.4,102.9,75,102.9z M83.1,135.2
		L83.1,135.2v4.5H66.9c0.2-1.7,0.7-3.3,1.6-4.9c0.9-1.5,2.6-3.6,5.2-6.1c2.1-2.1,3.4-3.4,3.8-4.2c0.6-1,1-2,1-3
		c0-1.1-0.3-1.9-0.8-2.5c-0.6-0.6-1.3-0.9-2.3-0.9c-1,0-1.7,0.3-2.3,0.9c-0.6,0.6-0.9,1.6-1,3.1l-4.6-0.5c0.3-2.7,1.1-4.6,2.6-5.8
		c1.4-1.2,3.3-1.8,5.4-1.8c2.4,0,4.2,0.7,5.6,2c1.4,1.4,2,3,2,5.1c0,1.1-0.2,2.2-0.6,3.3c-0.4,1-1,2.1-1.8,3.3
		c-0.6,0.8-1.6,1.8-3,3.3c-1.5,1.4-2.4,2.4-2.8,2.8c-0.4,0.5-0.7,0.9-0.9,1.4H83.1z"/>
	<g>
		<polygon class="st2" points="89.7,88.6 56.4,88.6 25,12.5 58.3,12.5 		"/>
		<polygon class="st2" points="60.3,88.6 93.6,88.6 125,12.5 91.7,12.5 		"/>
	</g>
</g>
</svg>
